# xmcd
#
# Track frame offsets:
#	150
#	20294
#	39284
#	57594
#	77093
#	92901
#	105028
#	124153
#	145703
#	162268
#	180731
#	194779
#	211969
#	233494
#	251181
#	279136
#
# Disc length: 3734 seconds
#
# Revision: 1
# Processed by: cddbd v1.5.2PL0 Copyright (c) Steve Scherf et al.
# Submitted via: audiograbber 1.83.01
#
DISCID=d30e9410
DTITLE=Compulation - SC8851
DYEAR=2003
DGENRE=Karaoke
TTITLE0=Sara Evans - Backseat Of A Greyhound Bus
TTITLE1=Martina McBride - This One's For The Girls
TTITLE2=Jennifer Hanson - Beautiful Goodbye
TTITLE3=Martina McBride - Concrete Angel
TTITLE4=Faith Hill - You're Still Here
TTITLE5=The Dixie Chicks - White Trash Wedding
TTITLE6=Faith Hill - When The Lights Go Down
TTITLE7=The Dixie Chicks - Travelin' Soldier (Live Version)
TTITLE8=Reba McEntire - I'm Gonna Take That Mountain
TTITLE9=Wynonna - What The World Needs
TTITLE10=Shania Twain - Up! (Country Version)
TTITLE11=Deana Carter - There's No Limit
TTITLE12=Sherrie Austin - Streets Of Heaven
TTITLE13=Jessica Andrews - There's More To Me Than You
TTITLE14=Patty Loveless - Lovin' All Night (Radio Version)
TTITLE15=Data - Data Track
EXTD=
EXTT0=
EXTT1=
EXTT2=
EXTT3=
EXTT4=
EXTT5=
EXTT6=
EXTT7=
EXTT8=
EXTT9=
EXTT10=
EXTT11=
EXTT12=
EXTT13=
EXTT14=
EXTT15=
PLAYORDER=
